<svg id="Capa_1" data-name="Capa 1" xmlns="http://www.w3.org/2000/svg" viewBox="0 0 800 800"><defs><style>.cls-1{fill:none;}.cls-2{fill:#1400c6;}.cls-3{fill:#c1c1c0;}</style></defs><title>LOGO</title><path class="cls-1" d="M354.62,498.29l.54.32.54.32a81.44,81.44,0,0,0,30.7,10.49,82.47,82.47,0,0,0,10.48.7h0a81.75,81.75,0,0,0,10.07-.65l.76-.1.76-.1c40.64-5.81,71.93-41.71,71.93-85.16a87.67,87.67,0,0,0-8.2-37.2c-.11-.24-.23-.47-.34-.7s-.23-.47-.35-.7c-1-2-2.05-4.05-3.2-6a84.82,84.82,0,0,0-33.68-32.11l-.56-.3-.56-.29a81.18,81.18,0,0,0-36.63-8.71,82.07,82.07,0,0,0-59.06,25.19,87.52,87.52,0,0,0,16.8,135Z"/><path class="cls-2" d="M313.35,424.11a87,87,0,0,1,24.47-60.82,87.52,87.52,0,0,0,16.8,135h0A86.46,86.46,0,0,1,313.35,424.11Z"/><path class="cls-2" d="M275.17,485.23A137.34,137.34,0,0,1,396.88,284.32h0A137.34,137.34,0,0,0,275.17,485.23Z"/><path class="cls-2" d="M458.47,298.89a136.39,136.39,0,0,0-24-9.36,136.39,136.39,0,0,1,24,9.36Z"/><path class="cls-2" d="M313.35,424.11a87,87,0,0,1,24.47-60.82,82.07,82.07,0,0,1,59.06-25.19,81.18,81.18,0,0,1,36.63,8.71l.28-.53a81.64,81.64,0,0,0-36.91-8.8c-46.41,0-84.16,38.86-84.16,86.63a87.17,87.17,0,0,0,41.62,74.71l.28-.53A86.46,86.46,0,0,1,313.35,424.11Z"/><path class="cls-2" d="M259.57,421.63a137.29,137.29,0,0,0,72,120.83l.31-.6A136.79,136.79,0,0,1,260.2,421.63C260.2,346.26,321.51,285,396.88,285a135.71,135.71,0,0,1,61.28,14.54l.31-.6a136.39,136.39,0,0,0-24-9.36c-1.09-.31-2.18-.6-3.28-.88a137.4,137.4,0,0,0-171.62,133Z"/><path class="cls-3" d="M396.88,510.75a81.78,81.78,0,0,1-41.46-11.29l-22.39,43a135.63,135.63,0,0,0,48.91,15l24.66-47.34A82.22,82.22,0,0,1,396.88,510.75Z"/><path class="cls-3" d="M471.86,384.85l27.74-53.27a137.51,137.51,0,0,0-40.32-31.53L434.9,346.86A86,86,0,0,1,471.86,384.85Z"/><path class="cls-3" d="M396.88,510.12h0a81.75,81.75,0,0,0,10.07-.65h0A81.75,81.75,0,0,1,396.88,510.12Z"/><path class="cls-3" d="M500,330.92h0a138,138,0,0,0-40.35-31.47h0A138,138,0,0,1,500,330.92Z"/><path class="cls-3" d="M355.7,498.93h0a81.44,81.44,0,0,0,30.7,10.49A81.44,81.44,0,0,1,355.7,498.93Z"/><path class="cls-3" d="M471.51,385.51h0c-1-2-2.05-4.05-3.2-6C469.46,381.46,470.51,383.47,471.51,385.51Z"/><path class="cls-3" d="M396.88,510.12h0a82.47,82.47,0,0,1-10.48-.7,81.44,81.44,0,0,1-30.7-10.49l-.28.53a81.27,81.27,0,0,0,51.18,10.69l.35-.68A81.75,81.75,0,0,1,396.88,510.12Z"/><path class="cls-3" d="M499.6,331.58l.35-.66a138,138,0,0,0-40.35-31.47l-.32.6A137.51,137.51,0,0,1,499.6,331.58Z"/><path class="cls-3" d="M468.31,379.51c1.15,1.95,2.2,4,3.2,6l.35-.66a86,86,0,0,0-37-38l-.27.54A84.82,84.82,0,0,1,468.31,379.51Z"/><path class="cls-3" d="M333,542.45l-.31.6a136.56,136.56,0,0,0,48.91,15l.31-.6A135.63,135.63,0,0,1,333,542.45Z"/><path class="cls-2" d="M354.88,499.14l-.54-.32-22.42,43,.56.3Z"/><path class="cls-2" d="M434.35,346.57l24.37-46.8-.56-.28-24.37,46.79Z"/><path class="cls-2" d="M354.62,498.29h0l.54.32h0Z"/><path class="cls-2" d="M459,299.17h0c-.18-.1-.37-.19-.56-.28h0C458.66,299,458.85,299.07,459,299.17Z"/><path class="cls-2" d="M331.92,541.86l-.31.6.56.29.31-.59Z"/><path class="cls-2" d="M354.62,498.29l-.28.53.54.32.28-.53Z"/><path class="cls-2" d="M459,299.17c-.18-.1-.37-.19-.56-.28l-.31.6.56.28Z"/><path class="cls-2" d="M434.07,347.1l.28-.53-.56-.29-.28.53Z"/><path class="cls-2" d="M354.88,499.14l-22.4,43,.55.29,22.39-43Z"/><path class="cls-2" d="M459.28,300.05l-.56-.28-24.37,46.8.55.29Z"/><path class="cls-2" d="M406.6,510.15l-24.66,47.34.67.08,24.75-47.52Z"/><path class="cls-2" d="M472.2,385.55l27.85-53.47-.45-.5-27.74,53.27C472,385.08,472.09,385.31,472.2,385.55Z"/><path class="cls-2" d="M407,509.47h0l.76-.1h0Z"/><path class="cls-2" d="M471.86,386.21h0c-.11-.24-.23-.47-.35-.7h0C471.63,385.74,471.75,386,471.86,386.21Z"/><path class="cls-2" d="M500.39,331.42h0c-.15-.17-.3-.33-.44-.5h0C500.09,331.09,500.24,331.26,500.39,331.42Z"/><path class="cls-2" d="M459.6,299.45h0l-.57-.28h0Z"/><path class="cls-2" d="M355.16,498.61h0l.54.32h0Z"/><path class="cls-2" d="M381.94,557.49l-.31.6.67.08.31-.6Z"/><path class="cls-2" d="M471.51,385.51c.12.23.24.46.35.7l.34-.66c-.11-.24-.23-.47-.34-.7Z"/><path class="cls-2" d="M407,509.47l-.35.68.76-.1.35-.68Z"/><path class="cls-2" d="M332.48,542.16l-.31.59.55.3.31-.6Z"/><path class="cls-2" d="M355.7,498.93l-.54-.32-.28.53.54.32Z"/><path class="cls-2" d="M500.05,332.08l.34-.66c-.15-.16-.3-.33-.44-.5l-.35.66Z"/><path class="cls-2" d="M434.63,347.4l.27-.54-.55-.29-.28.53Z"/><path class="cls-2" d="M459.28,300.05l.32-.6-.57-.28-.31.6Z"/><path class="cls-2" d="M481,424.11c0,43.85-31.81,80.16-72.91,85.84l-24.84,47.68a135.79,135.79,0,0,0,13.6.68c75.36,0,136.68-61.32,136.68-136.68a136,136,0,0,0-33.07-89l-27.94,53.64A88.18,88.18,0,0,1,481,424.11Z"/><path class="cls-2" d="M480.4,424.11c0,43.45-31.29,79.35-71.93,85.16h0c40.64-5.81,71.93-41.71,71.93-85.16a87.67,87.67,0,0,0-8.2-37.2h0A87.67,87.67,0,0,1,480.4,424.11Z"/><path class="cls-2" d="M534.18,421.63a136.61,136.61,0,0,1-23.45,76.77,137.36,137.36,0,0,0-9.89-166.47h0A136.75,136.75,0,0,1,534.18,421.63Z"/><path class="cls-2" d="M500.84,331.93l-.35.67a136,136,0,0,1,33.07,89c0,75.36-61.32,136.68-136.68,136.68a135.79,135.79,0,0,1-13.6-.68l-.31.61a138.85,138.85,0,0,0,13.91.7,137.32,137.32,0,0,0,104-227Z"/><path class="cls-2" d="M480.4,424.11c0,43.45-31.29,79.35-71.93,85.16l-.35.68c41.1-5.68,72.91-42,72.91-85.84a88.18,88.18,0,0,0-8.48-37.87l-.35.67A87.67,87.67,0,0,1,480.4,424.11Z"/><path class="cls-2" d="M472.2,385.55c.12.23.24.46.35.69l27.94-53.64-.44-.52Z"/><path class="cls-2" d="M407.36,510.05l-24.75,47.52.67.06L408.12,510Z"/><path class="cls-2" d="M407.71,509.37h0l.76-.1h0Z"/><path class="cls-2" d="M472.2,386.91h0c-.11-.24-.23-.47-.34-.7h0C472,386.44,472.09,386.67,472.2,386.91Z"/><path class="cls-2" d="M500.84,331.93h0l-.45-.51h0Z"/><path class="cls-2" d="M500.49,332.6l.35-.67-.45-.51-.34.66Z"/><path class="cls-2" d="M407.71,509.37l-.35.68.76-.1.35-.68Z"/><path class="cls-2" d="M472.2,386.91l.35-.67c-.11-.23-.23-.46-.35-.69l-.34.66C472,386.44,472.09,386.67,472.2,386.91Z"/><path class="cls-2" d="M382.61,557.57l-.31.6.67.07.31-.61Z"/><path class="cls-2" d="M300,723,277.06,544.46l.45-.87L517.64,77l22.79,184.35-.45.87ZM283.55,545.6l20.12,156.72L534,260.18,513.91,98Z"/><path d="M312.72,424.11c0-47.77,37.75-86.63,84.16-86.63a81.64,81.64,0,0,1,36.91,8.8l24.37-46.79A135.71,135.71,0,0,0,396.88,285c-75.37,0-136.68,61.31-136.68,136.68a136.79,136.79,0,0,0,71.72,120.23l22.42-43A87.17,87.17,0,0,1,312.72,424.11Z"/></svg>